<?xml version="1.0" encoding="utf-8"?>
<!-- Generator: Adobe Illustrator 21.0.0, SVG Export Plug-In . SVG Version: 6.00 Build 0)  -->
<svg version="1.1" id="图层_1" xmlns="http://www.w3.org/2000/svg" xmlns:xlink="http://www.w3.org/1999/xlink" x="0px" y="0px"
	 viewBox="0 0 36 36" style="enable-background:new 0 0 36 36;" xml:space="preserve">
<style type="text/css">
	.st0{fill:#45B364;}
	.st1{fill:#FFFFFF;}
	.st2{fill:#45B264;}
	.st3{fill:#30B1F5;}
	.st4{fill:none;}
	.st5{fill:#26CBB2;}
	.st6{fill:#90CAF9;}
	.st7{fill:#E51373;}
	.st8{fill:#F4A156;}
	.st9{fill:#52C6AF;}
	.st10{fill-rule:evenodd;clip-rule:evenodd;fill:#0DB4E9;}
	.st11{fill:#F98B60;}
	.st12{fill:#1799DD;}
	.st13{fill:#388E3C;}
	.st14{fill:#FCFCFC;}
	.st15{fill:#03A9F4;}
	.st16{fill:#FD9777;}
	.st17{fill:#4ACFBB;}
	.st18{fill:#49D0F2;}
	.st19{fill-rule:evenodd;clip-rule:evenodd;fill:#1799DD;}
	.st20{fill:#12AEF5;}
	.st21{fill:#0FB4EA;}
	.st22{fill:#2DC667;}
	.st23{fill:#4AD1F3;}
</style>
<g>
	<path class="st13" d="M19.2,4.6c-0.7-0.7-1.6-0.7-2.3,0L7,14.5c-0.7,0.7-0.7,1.6,0,2.3c0.3,0.3,0.7,0.5,1.2,0.5
		c0.4,0,0.8-0.2,1.2-0.5l9.9-9.9C19.8,6.2,19.8,5.2,19.2,4.6z"/>
	<g>
		<path class="st13" d="M27.9,17.5c-0.5,0-1-0.2-1.3-0.6l-9.9-9.9c-0.8-0.8-0.8-1.9,0-2.7C17,4,17.5,3.8,18,3.8s1,0.2,1.3,0.6
			l9.9,9.9c0.8,0.8,0.8,1.9,0,2.7C28.9,17.3,28.4,17.5,27.9,17.5z"/>
		<path class="st14" d="M18,4.1c0.4,0,0.8,0.2,1.2,0.5l9.9,9.9c0.7,0.7,0.7,1.6,0,2.3c-0.3,0.3-0.7,0.5-1.2,0.5
			c-0.4,0-0.8-0.2-1.2-0.5l-9.9-9.9c-0.7-0.7-0.7-1.6,0-2.3C17.2,4.3,17.6,4.1,18,4.1 M18,3.6c-0.6,0-1.1,0.2-1.5,0.6
			c-0.9,0.9-0.9,2.2,0,3l9.9,9.9c0.4,0.4,0.9,0.6,1.5,0.6c0.6,0,1.1-0.2,1.5-0.6c0.4-0.4,0.6-0.9,0.6-1.5c0-0.6-0.2-1.1-0.6-1.5
			l-9.9-9.9C19.1,3.8,18.6,3.6,18,3.6L18,3.6z"/>
	</g>
	<path class="st13" d="M29,33.8H7c-0.8,0-1.5-0.6-1.6-1.3l-3-15.2h31.3l-3,15.2C30.4,33.2,29.8,33.8,29,33.8z"/>
	<g>
		<path class="st13" d="M2.3,19.2c-1,0-1.9-0.9-1.9-1.9v-1.6c0-1,0.9-1.9,1.9-1.9h31.3c1,0,1.9,0.9,1.9,1.9v1.6c0,1-0.9,1.9-1.9,1.9
			H2.3z"/>
		<path class="st14" d="M33.7,14c0.9,0,1.6,0.7,1.6,1.6v1.6c0,0.9-0.7,1.6-1.6,1.6H2.3c-0.9,0-1.6-0.7-1.6-1.6v-1.6
			c0-0.9,0.7-1.6,1.6-1.6H33.7 M33.7,13.5H2.3c-1.2,0-2.1,1-2.1,2.1v1.6c0,1.2,1,2.1,2.1,2.1h31.3c1.2,0,2.1-1,2.1-2.1v-1.6
			C35.8,14.4,34.8,13.5,33.7,13.5L33.7,13.5z"/>
	</g>
	<polygon class="st1" points="23.6,20.4 17.1,26.9 14,23.8 12.2,25.6 17.1,30.5 25.4,22.1 	"/>
</g>
</svg>
