<?xml version="1.0" encoding="utf-8"?>
<!-- Generator: Adobe Illustrator 21.0.0, SVG Export Plug-In . SVG Version: 6.00 Build 0)  -->
<svg version="1.1" id="图层_1" xmlns="http://www.w3.org/2000/svg" xmlns:xlink="http://www.w3.org/1999/xlink" x="0px" y="0px"
	 viewBox="0 0 36 36" style="enable-background:new 0 0 36 36;" xml:space="preserve">
<style type="text/css">
	.st0{fill:#45B364;}
	.st1{fill:#FFFFFF;}
	.st2{fill:#45B264;}
	.st3{fill:#30B1F5;}
	.st4{fill:none;}
	.st5{fill:#26CBB2;}
	.st6{fill:#90CAF9;}
	.st7{fill:#E51373;}
	.st8{fill:#F4A156;}
	.st9{fill:#52C6AF;}
	.st10{fill-rule:evenodd;clip-rule:evenodd;fill:#0DB4E9;}
	.st11{fill:#F98B60;}
	.st12{fill:#1799DD;}
	.st13{fill:#388E3C;}
	.st14{fill:#FCFCFC;}
	.st15{fill:#03A9F4;}
	.st16{fill:#FD9777;}
	.st17{fill:#4ACFBB;}
	.st18{fill:#49D0F2;}
	.st19{fill-rule:evenodd;clip-rule:evenodd;fill:#1799DD;}
	.st20{fill:#12AEF5;}
	.st21{fill:#0FB4EA;}
	.st22{fill:#2DC667;}
	.st23{fill:#4AD1F3;}
</style>
<g>
	<path class="st3" d="M9,15.8c0,0-7.9-0.5-8.4,6.2c-0.5,6.8,4.4,6.8,5.3,6.8s22.6,0,22.6,0s1.2,0,2,0c1.4,0,4.9-1.8,4.9-5.2
		s-3-8.2-8.5-5.6c0,0,1.3,0.2,2.2,0.4c0.9,0.2,2.9,0.9,3.3,2.8c0.5,2.6-0.3,5.4-2.3,5.4c-2,0-21.4-0.3-22.5-0.3
		c-2.9,0-4.5-1.1-4.1-4.2c0.5-3.1,3.8-3.8,4.6-3.9c1.4,0,2.5,0.9,5.4,3.6c0,0-1.5-3-2-4.4c-0.5-1.6,0.2-4.5,1.7-5.9
		s5.6-4.4,10.3,0.3c0,0-0.9-4-4.3-4.5c-3.4-0.4-5.6-0.1-8.2,2.6S9,15.8,9,15.8z"/>
	<path class="st4" d="M25,12.3v3.5h3.3C27.9,14.1,26.7,12.8,25,12.3z"/>
	<path class="st4" d="M29.7,15.8h1.1c-0.5-3.1-2.8-5.5-5.8-6.1v1.1C27.4,11.4,29.3,13.3,29.7,15.8z"/>
	<path class="st3" d="M28.3,15.8h1.4c-0.4-2.4-2.3-4.4-4.7-4.9v1.5C26.7,12.8,27.9,14.1,28.3,15.8z"/>
	<path class="st3" d="M30.9,15.8h1.4C31.8,12,28.8,8.9,25,8.3v1.4C28,10.3,30.4,12.7,30.9,15.8z"/>
</g>
</svg>
