<?xml version="1.0" encoding="utf-8"?>
<!-- Generator: Adobe Illustrator 21.0.0, SVG Export Plug-In . SVG Version: 6.00 Build 0)  -->
<svg version="1.1" id="图层_1" xmlns="http://www.w3.org/2000/svg" xmlns:xlink="http://www.w3.org/1999/xlink" x="0px" y="0px"
	 viewBox="0 0 36 36" style="enable-background:new 0 0 36 36;" xml:space="preserve">
<style type="text/css">
	.st0{fill:#45B364;}
	.st1{fill:#FFFFFF;}
	.st2{fill:#45B264;}
	.st3{fill:#30B1F5;}
	.st4{fill:none;}
	.st5{fill:#26CBB2;}
	.st6{fill:#90CAF9;}
	.st7{fill:#E51373;}
	.st8{fill:#F4A156;}
	.st9{fill:#52C6AF;}
	.st10{fill-rule:evenodd;clip-rule:evenodd;fill:#0DB4E9;}
	.st11{fill:#F98B60;}
	.st12{fill:#1799DD;}
	.st13{fill:#388E3C;}
	.st14{fill:#FCFCFC;}
	.st15{fill:#03A9F4;}
	.st16{fill:#FD9777;}
	.st17{fill:#4ACFBB;}
	.st18{fill:#49D0F2;}
	.st19{fill-rule:evenodd;clip-rule:evenodd;fill:#1799DD;}
	.st20{fill:#12AEF5;}
	.st21{fill:#0FB4EA;}
	.st22{fill:#2DC667;}
	.st23{fill:#4AD1F3;}
</style>
<g>
	<path class="st5" d="M25.9,36H10.1c-3.3,0-6-2.7-6-6V6c0-3.3,2.7-6,6-6h15.7c3.3,0,6,2.7,6,6v24.1C31.8,33.4,29.1,36,25.9,36z"/>
	<path class="st1" d="M26.5,29H9.5c-1.1,0-2-0.9-2-2V5.2c0-1.1,0.9-2,2-2h17.1c1.1,0,2,0.9,2,2V27C28.5,28.1,27.6,29,26.5,29z"/>
	<path class="st1" d="M18,32.9c0.5,0,0.9,0.5,0.9,1h1.6c0-1.5-1.1-2.8-2.5-2.8s-2.5,1.2-2.5,2.8h1.6C17.1,33.3,17.5,32.9,18,32.9z"
		/>
	<g>
		<polygon class="st5" points="25.6,13.8 22.2,9.2 18.9,13.8 21.2,13.8 21.2,25.2 23.3,25.2 23.3,13.8 		"/>
		<polygon class="st5" points="10.4,20.6 13.8,25.2 17.1,20.6 14.8,20.6 14.8,9.2 12.7,9.2 12.7,20.6 		"/>
	</g>
</g>
</svg>
