<?xml version="1.0" encoding="utf-8"?>
<!-- Generator: Adobe Illustrator 21.0.0, SVG Export Plug-In . SVG Version: 6.00 Build 0)  -->
<svg version="1.1" id="图层_1" xmlns="http://www.w3.org/2000/svg" xmlns:xlink="http://www.w3.org/1999/xlink" x="0px" y="0px"
	 viewBox="0 0 36 36" style="enable-background:new 0 0 36 36;" xml:space="preserve">
<style type="text/css">
	.st0{fill:#45B364;}
	.st1{fill:#FFFFFF;}
	.st2{fill:#45B264;}
	.st3{fill:#30B1F5;}
	.st4{fill:none;}
	.st5{fill:#26CBB2;}
	.st6{fill:#90CAF9;}
	.st7{fill:#E51373;}
	.st8{fill:#F4A156;}
	.st9{fill:#52C6AF;}
	.st10{fill-rule:evenodd;clip-rule:evenodd;fill:#0DB4E9;}
	.st11{fill:#F98B60;}
	.st12{fill:#1799DD;}
	.st13{fill:#388E3C;}
	.st14{fill:#FCFCFC;}
	.st15{fill:#03A9F4;}
	.st16{fill:#FD9777;}
	.st17{fill:#4ACFBB;}
	.st18{fill:#49D0F2;}
	.st19{fill-rule:evenodd;clip-rule:evenodd;fill:#1799DD;}
	.st20{fill:#12AEF5;}
	.st21{fill:#0FB4EA;}
	.st22{fill:#2DC667;}
	.st23{fill:#4AD1F3;}
</style>
<g>
	<path class="st10" d="M15.2,9.5H0v5.7h15.2V9.5L15.2,9.5L15.2,9.5z M26.5,0.3c1.9-0.9,4.5,0.1,5.4,2c0.9,1.9,0.1,4.6-2.1,5.6
		c-1.9,0.9-9.3,2.5-10.2,0.6C18.7,6.7,24.6,1.2,26.5,0.3L26.5,0.3L26.5,0.3L26.5,0.3z M29,5.8c0.9-0.4,1.3-1.5,0.9-2.4
		c-0.4-0.9-1.6-1-2.5-0.6C26.4,3.3,22.6,6,23,6.9C23.5,7.9,28,6.2,29,5.8L29,5.8L29,5.8L29,5.8z M15.2,17.1H1.9V36h13.3V17.1
		L15.2,17.1L15.2,17.1z M36,9.5H20.8v5.7H36V9.5L36,9.5L36,9.5z M34.1,17.1H20.8V36h13.3V17.1L34.1,17.1L34.1,17.1z M4.1,2.3
		c0.9-1.9,3.5-2.9,5.4-2c1.9,0.9,7.8,6.3,6.9,8.2c-0.9,1.9-8.3,0.3-10.2-0.6C4,6.9,3.2,4.2,4.1,2.3L4.1,2.3L4.1,2.3L4.1,2.3z M7,5.8
		C8,6.2,12.5,7.9,13,6.9C13.4,6,9.6,3.3,8.7,2.8C7.7,2.4,6.6,2.4,6.1,3.4C5.7,4.3,6.1,5.4,7,5.8L7,5.8L7,5.8L7,5.8z"/>
</g>
</svg>
