<?xml version="1.0" encoding="utf-8"?>
<!-- Generator: Adobe Illustrator 21.0.0, SVG Export Plug-In . SVG Version: 6.00 Build 0)  -->
<svg version="1.1" id="图层_1" xmlns="http://www.w3.org/2000/svg" xmlns:xlink="http://www.w3.org/1999/xlink" x="0px" y="0px"
	 viewBox="0 0 36 36" style="enable-background:new 0 0 36 36;" xml:space="preserve">
<style type="text/css">
	.st0{fill:#45B364;}
	.st1{fill:#FFFFFF;}
	.st2{fill:#45B264;}
	.st3{fill:#30B1F5;}
	.st4{fill:none;}
	.st5{fill:#26CBB2;}
	.st6{fill:#90CAF9;}
	.st7{fill:#E51373;}
	.st8{fill:#F4A156;}
	.st9{fill:#52C6AF;}
	.st10{fill-rule:evenodd;clip-rule:evenodd;fill:#0DB4E9;}
	.st11{fill:#F98B60;}
	.st12{fill:#1799DD;}
	.st13{fill:#388E3C;}
	.st14{fill:#FCFCFC;}
	.st15{fill:#03A9F4;}
	.st16{fill:#FD9777;}
	.st17{fill:#4ACFBB;}
	.st18{fill:#49D0F2;}
	.st19{fill-rule:evenodd;clip-rule:evenodd;fill:#1799DD;}
	.st20{fill:#12AEF5;}
	.st21{fill:#0FB4EA;}
	.st22{fill:#2DC667;}
	.st23{fill:#4AD1F3;}
</style>
<g>
	<path class="st11" d="M34,29.8H3.8V4.4c0-1-0.8-1.9-1.9-1.9h0c-1,0-1.9,0.8-1.9,1.9v27.3c0,1,0.8,1.9,1.9,1.9h0H34
		c1,0,1.9-0.8,1.9-1.9S35.1,29.8,34,29.8z"/>
	<path class="st11" d="M10.6,28.9H9c-1.5,0-2.7-1.2-2.7-2.7V24c0-1.5,1.2-2.7,2.7-2.7h1.6c1.5,0,2.7,1.2,2.7,2.7v2.2
		C13.3,27.7,12.1,28.9,10.6,28.9z"/>
	<path class="st11" d="M20,28.9h-1.6c-1.5,0-2.7-1.2-2.7-2.7V8.9c0-1.5,1.2-2.7,2.7-2.7H20c1.5,0,2.7,1.2,2.7,2.7v17.3
		C22.7,27.7,21.5,28.9,20,28.9z"/>
	<path class="st11" d="M29.4,28.9h-1.6c-1.5,0-2.7-1.2-2.7-2.7V16c0-1.5,1.2-2.7,2.7-2.7h1.6c1.5,0,2.7,1.2,2.7,2.7v10.2
		C32.1,27.7,30.9,28.9,29.4,28.9z"/>
</g>
</svg>
