<?xml version="1.0" encoding="utf-8"?>
<!-- Generator: Adobe Illustrator 21.0.0, SVG Export Plug-In . SVG Version: 6.00 Build 0)  -->
<svg version="1.1" id="图层_1" xmlns="http://www.w3.org/2000/svg" xmlns:xlink="http://www.w3.org/1999/xlink" x="0px" y="0px"
	 viewBox="0 0 36 36" style="enable-background:new 0 0 36 36;" xml:space="preserve">
<style type="text/css">
	.st0{fill:#45B364;}
	.st1{fill:#FFFFFF;}
	.st2{fill:#45B264;}
	.st3{fill:#30B1F5;}
	.st4{fill:none;}
	.st5{fill:#26CBB2;}
	.st6{fill:#90CAF9;}
	.st7{fill:#E51373;}
	.st8{fill:#F4A156;}
	.st9{fill:#52C6AF;}
	.st10{fill-rule:evenodd;clip-rule:evenodd;fill:#0DB4E9;}
	.st11{fill:#F98B60;}
	.st12{fill:#1799DD;}
	.st13{fill:#388E3C;}
	.st14{fill:#FCFCFC;}
	.st15{fill:#03A9F4;}
	.st16{fill:#FD9777;}
	.st17{fill:#4ACFBB;}
	.st18{fill:#49D0F2;}
	.st19{fill-rule:evenodd;clip-rule:evenodd;fill:#1799DD;}
	.st20{fill:#12AEF5;}
	.st21{fill:#0FB4EA;}
	.st22{fill:#2DC667;}
	.st23{fill:#4AD1F3;}
</style>
<g>
	<path class="st4" d="M27.5,7.3l2.4-2.2v1.5c0.1,0,0.2,0,0.3,0c2,0,3.3,1.6,3.9,2.8c0.1-0.4,0.2-0.8,0.2-1.3c0-2.5-2-4.5-4.5-4.5
		c-2.4,0-4.3,1.9-4.5,4.2h2.8L27.5,7.3z"/>
	<path class="st4" d="M32.1,11.5V12c0.4-0.3,0.8-0.6,1.1-1l0,0c-0.9-3-2.6-3.2-3.3-3.1v0.3C31.2,8.7,32.1,10,32.1,11.5z"/>
	<path class="st12" d="M23.7,8.1c0-0.1,0-0.2,0-0.3H3.6c-2,0-3.6,1.6-3.6,3.6v18.9c0,2,1.6,3.6,3.6,3.6h24.9c2,0,3.6-1.6,3.6-3.6
		V13.8c-0.7,0.3-1.5,0.4-2.3,0.4C26.5,14.3,23.7,11.5,23.7,8.1z"/>
	<path class="st12" d="M36,8.1C36,4.7,33.2,2,29.9,2c-3.3,0-6,2.6-6.1,5.9h1.7c0.1-2.3,2.1-4.2,4.5-4.2c2.5,0,4.5,2,4.5,4.5
		c0,0.4-0.1,0.9-0.2,1.3c-0.6-1.2-1.9-2.8-3.9-2.8c-0.1,0-0.2,0-0.3,0V5.1l-2.4,2.2l0.7,0.6h0.3c0.5,0,1,0.1,1.4,0.3V7.9
		c0.7-0.1,2.5,0.1,3.3,3.1l0,0c-0.3,0.4-0.7,0.7-1.1,1v1.9C34.4,12.9,36,10.7,36,8.1z"/>
	<path class="st12" d="M29.9,8.2C29.5,8,29,7.9,28.5,7.9h-0.3l1.8,1.6V8.2z"/>
	<path class="st12" d="M29.9,12.6c-2.5,0-4.5-2-4.5-4.5c0-0.1,0-0.2,0-0.3h-1.7c0,0.1,0,0.2,0,0.3c0,3.4,2.8,6.1,6.1,6.1
		c0.8,0,1.6-0.2,2.3-0.4V12C31.5,12.3,30.7,12.6,29.9,12.6z"/>
	<path class="st1" d="M28.2,16.3H8.8c-0.5-0.9-1.4-1.5-2.5-1.5c-1.6,0-2.8,1.3-2.8,2.8c0,1.6,1.3,2.8,2.8,2.8c1.1,0,2-0.6,2.5-1.5
		h19.4V16.3z"/>
	<path class="st1" d="M28.2,24H8.8c-0.5-0.9-1.4-1.5-2.5-1.5c-1.6,0-2.8,1.3-2.8,2.8c0,1.6,1.3,2.8,2.8,2.8c1.1,0,2-0.6,2.5-1.5
		h19.4V24z"/>
</g>
</svg>
